<svg width="413.401" height="90.1" viewBox="0 0 413.401 90.1" xmlns="http://www.w3.org/2000/svg"><g id="svgGroup" stroke-linecap="round" fill-rule="evenodd" font-size="9pt" stroke="#ffffff" stroke-width="0.25mm" fill="#ffffff" style="stroke:#ffffff;stroke-width:0.25mm;fill:#ffffff"><path d="M 341.101 67 L 341.101 27 A 7.705 7.705 0 0 1 341.227 25.555 Q 341.507 24.094 342.401 23.2 A 4.286 4.286 0 0 1 344.476 22.068 Q 345.174 21.9 346.001 21.9 A 7.075 7.075 0 0 1 347.42 22.034 Q 348.801 22.317 349.651 23.2 A 4.152 4.152 0 0 1 350.605 24.852 Q 350.808 25.493 350.872 26.268 A 8.967 8.967 0 0 1 350.901 27 L 350.901 35.2 L 349.801 33 A 18.906 18.906 0 0 1 352.643 27.895 A 16.483 16.483 0 0 1 356.001 24.7 A 16.015 16.015 0 0 1 363.257 21.888 A 20.943 20.943 0 0 1 366.101 21.7 A 20.954 20.954 0 0 1 370.311 22.1 Q 372.94 22.639 374.992 23.907 A 12.436 12.436 0 0 1 376.001 24.6 Q 379.541 27.302 380.998 32.694 A 23.958 23.958 0 0 1 381.201 33.5 L 379.801 33.5 Q 381.701 28 386.301 24.85 A 18.049 18.049 0 0 1 395.315 21.763 A 22.473 22.473 0 0 1 397.001 21.7 A 23.946 23.946 0 0 1 400.9 21.999 Q 402.992 22.345 404.713 23.09 A 12.878 12.878 0 0 1 406.201 23.85 A 12.608 12.608 0 0 1 410.795 28.674 A 16.289 16.289 0 0 1 411.601 30.35 A 21.443 21.443 0 0 1 412.799 34.421 Q 413.194 36.431 413.329 38.766 A 43.694 43.694 0 0 1 413.401 41.3 L 413.401 67 A 6.874 6.874 0 0 1 413.241 68.526 Q 412.99 69.629 412.344 70.425 A 4.233 4.233 0 0 1 412.051 70.75 Q 410.701 72.1 408.301 72.1 A 6.828 6.828 0 0 1 406.812 71.948 Q 405.832 71.729 405.109 71.196 A 3.991 3.991 0 0 1 404.601 70.75 Q 403.365 69.467 403.304 67.237 A 8.578 8.578 0 0 1 403.301 67 L 403.301 41.8 A 28.413 28.413 0 0 0 403.13 38.574 Q 402.752 35.277 401.533 33.27 A 7.469 7.469 0 0 0 401.151 32.7 A 6.717 6.717 0 0 0 397.687 30.297 Q 396.129 29.8 394.101 29.8 Q 388.601 29.8 385.401 33.6 A 12.727 12.727 0 0 0 382.951 38.29 Q 382.201 40.855 382.201 44.1 L 382.201 67 A 7.128 7.128 0 0 1 382.047 68.526 Q 381.828 69.525 381.298 70.271 A 4.179 4.179 0 0 1 380.901 70.75 Q 379.601 72.1 377.201 72.1 A 6.874 6.874 0 0 1 375.675 71.941 Q 374.572 71.69 373.776 71.044 A 4.233 4.233 0 0 1 373.451 70.75 Q 372.101 69.4 372.101 67 L 372.101 41.8 A 29.082 29.082 0 0 0 371.934 38.574 Q 371.51 34.785 370.001 32.7 Q 368.15 30.144 364.124 29.841 A 14.962 14.962 0 0 0 363.001 29.8 A 12.822 12.822 0 0 0 359.206 30.335 A 10.034 10.034 0 0 0 354.351 33.6 A 12.779 12.779 0 0 0 351.952 38.249 Q 351.412 40.103 351.26 42.315 A 26.08 26.08 0 0 0 351.201 44.1 L 351.201 67 Q 351.201 71.047 347.989 71.883 A 7.514 7.514 0 0 1 346.101 72.1 A 6.828 6.828 0 0 1 344.612 71.948 Q 343.632 71.729 342.909 71.196 A 3.991 3.991 0 0 1 342.401 70.75 Q 341.165 69.467 341.104 67.237 A 8.578 8.578 0 0 1 341.101 67 Z M 25.268 71.466 A 43.462 43.462 0 0 0 34.001 72.3 Q 40.101 72.3 45.701 70.6 A 32.811 32.811 0 0 0 48.407 69.65 A 27.319 27.319 0 0 0 55.401 65.6 A 5.825 5.825 0 0 0 56.235 64.931 A 4.203 4.203 0 0 0 57.351 63.15 Q 57.801 61.7 57.451 60.35 Q 57.101 59 56.101 58.1 A 3.801 3.801 0 0 0 55.063 57.432 A 4.266 4.266 0 0 0 53.651 57.1 A 3.547 3.547 0 0 0 53.406 57.092 Q 52.511 57.092 51.488 57.531 A 8.614 8.614 0 0 0 50.401 58.1 Q 46.801 60.6 42.751 61.85 Q 38.701 63.1 34.301 63.1 Q 30.976 63.1 28.11 62.497 A 20.989 20.989 0 0 1 21.501 59.95 A 18.889 18.889 0 0 1 17.301 56.5 A 21.415 21.415 0 0 1 13.601 50.75 Q 11.997 47.158 11.346 42.667 A 45.804 45.804 0 0 1 10.901 36.1 A 52.342 52.342 0 0 1 10.928 34.394 Q 11.172 26.896 13.601 21.5 A 24.227 24.227 0 0 1 14.175 20.311 A 19.609 19.609 0 0 1 21.501 12.35 A 18.893 18.893 0 0 1 22.087 12.009 Q 27.124 9.2 34.301 9.2 Q 38.701 9.2 42.701 10.4 Q 46.701 11.6 50.001 14.1 A 8.994 8.994 0 0 0 50.546 14.437 Q 51.903 15.208 53.111 15.208 A 3.726 3.726 0 0 0 53.351 15.2 Q 54.901 15.1 55.901 14.15 Q 56.901 13.2 57.251 11.8 A 4.566 4.566 0 0 0 57.387 10.689 Q 57.387 9.797 57.051 8.85 A 4.687 4.687 0 0 0 55.953 7.128 A 6.709 6.709 0 0 0 54.801 6.2 A 26.468 26.468 0 0 0 51.167 3.918 A 31.987 31.987 0 0 0 45.351 1.6 Q 39.901 0 34.001 0 A 45.771 45.771 0 0 0 28.233 0.352 A 35.573 35.573 0 0 0 19.651 2.5 A 32.712 32.712 0 0 0 19.231 2.669 A 28.248 28.248 0 0 0 8.951 9.75 A 30.014 30.014 0 0 0 6.202 13.24 A 33.843 33.843 0 0 0 2.301 21.15 A 40.116 40.116 0 0 0 0.631 27.863 A 51.533 51.533 0 0 0 0.001 36.1 Q 0.001 47.2 4.051 55.35 Q 8.101 63.5 15.701 67.9 A 31.621 31.621 0 0 0 25.268 71.466 Z M 244.268 71.466 A 43.462 43.462 0 0 0 253.001 72.3 Q 259.101 72.3 264.701 70.6 A 32.811 32.811 0 0 0 267.407 69.65 A 27.319 27.319 0 0 0 274.401 65.6 A 5.825 5.825 0 0 0 275.235 64.931 A 4.203 4.203 0 0 0 276.351 63.15 Q 276.801 61.7 276.451 60.35 Q 276.101 59 275.101 58.1 A 3.801 3.801 0 0 0 274.063 57.432 A 4.266 4.266 0 0 0 272.651 57.1 A 3.547 3.547 0 0 0 272.406 57.092 Q 271.511 57.092 270.488 57.531 A 8.614 8.614 0 0 0 269.401 58.1 Q 265.801 60.6 261.751 61.85 Q 257.701 63.1 253.301 63.1 Q 249.976 63.1 247.11 62.497 A 20.989 20.989 0 0 1 240.501 59.95 A 18.889 18.889 0 0 1 236.301 56.5 A 21.415 21.415 0 0 1 232.601 50.75 Q 230.997 47.158 230.346 42.667 A 45.804 45.804 0 0 1 229.901 36.1 A 52.342 52.342 0 0 1 229.928 34.394 Q 230.172 26.896 232.601 21.5 A 24.227 24.227 0 0 1 233.175 20.311 A 19.609 19.609 0 0 1 240.501 12.35 A 18.893 18.893 0 0 1 241.087 12.009 Q 246.124 9.2 253.301 9.2 Q 257.701 9.2 261.701 10.4 Q 265.701 11.6 269.001 14.1 A 8.994 8.994 0 0 0 269.546 14.437 Q 270.903 15.208 272.111 15.208 A 3.726 3.726 0 0 0 272.351 15.2 Q 273.901 15.1 274.901 14.15 Q 275.901 13.2 276.251 11.8 A 4.566 4.566 0 0 0 276.387 10.689 Q 276.387 9.797 276.051 8.85 A 4.687 4.687 0 0 0 274.953 7.128 A 6.709 6.709 0 0 0 273.801 6.2 A 26.468 26.468 0 0 0 270.167 3.918 A 31.987 31.987 0 0 0 264.351 1.6 Q 258.901 0 253.001 0 A 45.771 45.771 0 0 0 247.233 0.352 A 35.573 35.573 0 0 0 238.651 2.5 A 32.712 32.712 0 0 0 238.231 2.669 A 28.248 28.248 0 0 0 227.951 9.75 A 30.014 30.014 0 0 0 225.202 13.24 A 33.843 33.843 0 0 0 221.301 21.15 A 40.116 40.116 0 0 0 219.631 27.863 A 51.533 51.533 0 0 0 219.001 36.1 Q 219.001 47.2 223.051 55.35 Q 227.101 63.5 234.701 67.9 A 31.621 31.621 0 0 0 244.268 71.466 Z M 117.001 83.3 L 123.801 68 L 123.801 72.3 L 105.101 28.8 A 8.361 8.361 0 0 1 104.684 27.389 Q 104.556 26.741 104.556 26.121 A 5.807 5.807 0 0 1 104.601 25.4 A 3.574 3.574 0 0 1 106.001 22.925 A 4.339 4.339 0 0 1 106.101 22.85 A 4.57 4.57 0 0 1 107.571 22.153 Q 108.186 21.979 108.915 21.925 A 9.233 9.233 0 0 1 109.601 21.9 A 6.484 6.484 0 0 1 110.812 22.007 Q 111.51 22.139 112.06 22.438 A 3.452 3.452 0 0 1 112.601 22.8 A 4.618 4.618 0 0 1 113.333 23.573 Q 113.962 24.394 114.517 25.699 A 16.14 16.14 0 0 1 114.601 25.9 L 129.701 63.2 L 126.901 63.2 L 142.201 25.9 Q 143.101 23.6 144.301 22.75 Q 145.501 21.9 147.601 21.9 A 5.521 5.521 0 0 1 148.773 22.018 Q 149.552 22.187 150.138 22.6 A 3.301 3.301 0 0 1 150.451 22.85 A 4.02 4.02 0 0 1 151.651 24.875 A 5.205 5.205 0 0 1 151.751 25.35 Q 152.001 26.9 151.201 28.7 L 126.201 86.2 A 12.207 12.207 0 0 1 125.618 87.375 Q 124.925 88.591 124.128 89.178 A 3.295 3.295 0 0 1 123.951 89.3 A 4.724 4.724 0 0 1 122.564 89.888 Q 121.953 90.044 121.234 90.085 A 9.261 9.261 0 0 1 120.701 90.1 A 5.592 5.592 0 0 1 119.393 89.955 A 4.009 4.009 0 0 1 117.751 89.15 A 3.547 3.547 0 0 1 116.455 86.699 A 4.573 4.573 0 0 1 116.451 86.65 Q 116.301 85.1 117.001 83.3 Z M 161.201 85 L 161.201 27 A 7.705 7.705 0 0 1 161.327 25.555 Q 161.607 24.094 162.501 23.2 A 4.286 4.286 0 0 1 164.576 22.068 Q 165.274 21.9 166.101 21.9 Q 167.959 21.9 169.158 22.68 A 3.956 3.956 0 0 1 169.801 23.2 A 4.143 4.143 0 0 1 170.815 24.92 Q 171.02 25.573 171.078 26.362 A 8.748 8.748 0 0 1 171.101 27 L 171.101 35.7 L 170.001 33.6 Q 171.601 28.2 176.301 24.95 Q 181.001 21.7 187.401 21.7 Q 193.901 21.7 198.751 24.8 A 20.134 20.134 0 0 1 205.734 32.472 A 24.382 24.382 0 0 1 206.251 33.5 A 26.296 26.296 0 0 1 208.279 39.887 Q 208.823 42.763 208.891 46.052 A 45.874 45.874 0 0 1 208.901 47 A 37.805 37.805 0 0 1 208.337 53.684 A 27.862 27.862 0 0 1 206.251 60.45 Q 203.601 66.2 198.801 69.25 A 19.351 19.351 0 0 1 191.35 72.002 A 25.309 25.309 0 0 1 187.401 72.3 A 20.945 20.945 0 0 1 181.329 71.449 A 17.864 17.864 0 0 1 176.401 69.1 Q 171.701 65.9 170.101 60.6 L 171.301 60.6 L 171.301 85 A 7.389 7.389 0 0 1 171.162 86.479 Q 170.868 87.917 169.951 88.8 Q 168.668 90.035 166.437 90.097 A 8.578 8.578 0 0 1 166.201 90.1 Q 164.342 90.1 163.143 89.321 A 3.956 3.956 0 0 1 162.501 88.8 A 4.143 4.143 0 0 1 161.486 87.08 Q 161.281 86.428 161.223 85.639 A 8.748 8.748 0 0 1 161.201 85 Z M 68.901 67 L 68.901 27 A 7.705 7.705 0 0 1 69.027 25.555 Q 69.307 24.094 70.201 23.2 A 4.286 4.286 0 0 1 72.276 22.068 Q 72.974 21.9 73.801 21.9 A 7.075 7.075 0 0 1 75.22 22.034 Q 76.601 22.317 77.451 23.2 A 4.152 4.152 0 0 1 78.405 24.852 Q 78.608 25.493 78.672 26.268 A 8.967 8.967 0 0 1 78.701 27 L 78.701 34.3 L 77.701 34.3 A 18.902 18.902 0 0 1 79.51 29.791 A 14.312 14.312 0 0 1 83.601 25.2 A 18.005 18.005 0 0 1 89.021 22.587 Q 91.565 21.827 94.601 21.6 Q 95.391 21.556 96.036 21.724 A 3.171 3.171 0 0 1 97.451 22.5 Q 98.291 23.3 98.523 24.805 A 7.598 7.598 0 0 1 98.601 25.6 A 6.735 6.735 0 0 1 98.63 26.112 Q 98.644 26.852 98.479 27.474 A 3.593 3.593 0 0 1 97.701 28.95 A 3.85 3.85 0 0 1 96.261 29.955 Q 95.685 30.194 94.974 30.315 A 8.311 8.311 0 0 1 94.301 30.4 L 92.401 30.6 Q 87.443 31.058 84.288 33.203 A 11.495 11.495 0 0 0 82.501 34.7 Q 79.101 38.2 79.101 44.3 L 79.101 67 Q 79.101 68.905 78.313 70.149 A 4.158 4.158 0 0 1 77.851 70.75 A 3.876 3.876 0 0 1 76.218 71.778 Q 75.596 71.99 74.835 72.062 A 8.79 8.79 0 0 1 74.001 72.1 A 7.389 7.389 0 0 1 72.522 71.962 Q 71.084 71.668 70.201 70.75 Q 68.965 69.467 68.904 67.237 A 8.578 8.578 0 0 1 68.901 67 Z M 305.601 72.3 Q 298.201 72.3 292.851 69.2 Q 287.501 66.1 284.501 60.4 A 25.603 25.603 0 0 1 281.94 52.602 A 34.273 34.273 0 0 1 281.501 47 A 34.97 34.97 0 0 1 281.912 41.507 A 26.357 26.357 0 0 1 283.201 36.5 A 23.611 23.611 0 0 1 286.875 29.907 A 22.059 22.059 0 0 1 288.051 28.55 Q 291.201 25.2 295.651 23.45 A 25.093 25.093 0 0 1 301.943 21.907 A 31.448 31.448 0 0 1 305.601 21.7 A 28.906 28.906 0 0 1 311.966 22.37 A 22.175 22.175 0 0 1 318.251 24.8 Q 323.601 27.9 326.601 33.55 A 25.029 25.029 0 0 1 329.086 40.909 A 34.413 34.413 0 0 1 329.601 47 A 34.143 34.143 0 0 1 329.092 53.015 A 27.283 27.283 0 0 1 327.901 57.5 A 23.646 23.646 0 0 1 325.045 63.065 A 20.888 20.888 0 0 1 323.051 65.5 Q 319.901 68.8 315.451 70.55 A 25.316 25.316 0 0 1 308.603 72.158 A 30.998 30.998 0 0 1 305.601 72.3 Z M 305.601 64.5 A 14.214 14.214 0 0 0 309.675 63.936 A 12.109 12.109 0 0 0 312.801 62.5 A 12.348 12.348 0 0 0 316.492 58.748 A 16.184 16.184 0 0 0 317.651 56.6 A 18.602 18.602 0 0 0 318.903 52.567 Q 319.276 50.671 319.369 48.488 A 34.859 34.859 0 0 0 319.401 47 Q 319.401 38.4 315.601 34 A 12.395 12.395 0 0 0 306.555 29.627 A 16.714 16.714 0 0 0 305.601 29.6 A 15.236 15.236 0 0 0 301.79 30.058 A 12.244 12.244 0 0 0 298.301 31.55 A 11.986 11.986 0 0 0 294.642 35.205 A 15.897 15.897 0 0 0 293.451 37.4 A 18.602 18.602 0 0 0 292.198 41.433 Q 291.825 43.329 291.732 45.513 A 34.859 34.859 0 0 0 291.701 47 A 30.507 30.507 0 0 0 292.072 51.922 Q 292.888 56.906 295.501 60 A 12.36 12.36 0 0 0 304.536 64.467 A 16.781 16.781 0 0 0 305.601 64.5 Z M 184.901 64.5 A 14.84 14.84 0 0 0 188.768 64.016 A 12.075 12.075 0 0 0 192.201 62.5 A 12.126 12.126 0 0 0 195.934 58.644 A 15.858 15.858 0 0 0 197.001 56.6 Q 198.701 52.7 198.701 47 A 31.525 31.525 0 0 0 198.352 42.15 Q 197.558 37.06 194.951 34 A 12.287 12.287 0 0 0 186.059 29.639 A 17.065 17.065 0 0 0 184.901 29.6 A 14.648 14.648 0 0 0 180.7 30.183 A 12.601 12.601 0 0 0 177.651 31.55 A 11.787 11.787 0 0 0 173.806 35.466 A 15.421 15.421 0 0 0 172.801 37.4 Q 171.101 41.3 171.101 47 A 30.507 30.507 0 0 0 171.472 51.922 Q 172.288 56.906 174.901 60 Q 178.701 64.5 184.901 64.5 Z" vector-effect="non-scaling-stroke"/></g></svg>